<svg width="50" height="50" viewBox="0 0 50 50" fill="none" xmlns="http://www.w3.org/2000/svg">
<path d="M25.375 49.5762C38.906 49.5762 49.875 38.6071 49.875 25.0762C49.875 11.5452 38.906 0.576172 25.375 0.576172C11.844 0.576172 0.875 11.5452 0.875 25.0762C0.875 38.6071 11.844 49.5762 25.375 49.5762Z" fill="white"/>
<path d="M28.842 11.8945C29.542 11.8945 30.256 11.9325 30.96 11.9645C31.419 11.9835 31.877 12.0485 32.308 12.0955L32.276 16.3405H31.939C31.473 16.3405 31.007 16.3345 30.539 16.3345C30.19 16.3345 29.839 16.3345 29.491 16.3495C28.366 16.3875 27.538 16.8085 27.481 18.2145C27.445 19.2265 27.419 21.4615 27.418 21.5785C27.476 21.5785 28.588 21.5785 29.707 21.5785C30.267 21.5785 30.813 21.5785 31.194 21.5785H32.103C31.875 23.2095 31.666 24.7735 31.439 26.3485H27.419L27.329 38.2575H22.391L22.481 26.3295H18.443L18.479 21.5875H22.536V21.2315C22.544 20.2755 22.536 19.3205 22.567 18.3645C22.5723 17.7555 22.6238 17.1478 22.721 16.5465C22.8302 15.8426 23.0777 15.1672 23.4491 14.5593C23.8205 13.9514 24.3085 13.423 24.885 13.0045C25.9304 12.28 27.1731 11.894 28.445 11.8985C28.5783 11.8959 28.7107 11.8945 28.842 11.8945Z" fill="#2A2637"/>
</svg>
